<?xml version="1.0" encoding="UTF-8"?>
<!DOCTYPE svg PUBLIC "-//W3C//DTD SVG 1.1//EN" "http://www.w3.org/Graphics/SVG/1.1/DTD/svg11.dtd">
<!-- Creator: FutureCorp VMX -->
<svg xmlns="http://www.w3.org/2000/svg" xml:space="preserve" shape-rendering="geometricPrecision" text-rendering="geometricPrecision" image-rendering="optimizeQuality" fill-rule="evenodd" clip-rule="evenodd" viewBox="0 0 900 268" enable-background="new 0 0 900 268" 
 xmlns:xlink="http://www.w3.org/1999/xlink">
 <g id="Layer_1">
  <metadata id="FutureCorpID_Layer"/>

  <path fill="#000000" d="M727.26,184.24 L713.45,184.24 L709.06,169.85 L687.01,169.85 L682.63,184.24 L668.81,184.24 L690.16,123.52 L705.83,123.52 L727.26,184.24 L727.26,184.24 zM599.07,133.57 C594.24,133.57 590.49,135.39 587.84,139.02 C585.21,142.62 583.89,147.68 583.89,154.17 C583.88,167.66 588.94,174.4 599.07,174.4 C603.28,174.4 608.42,173.34 614.5,171.21 L614.5,181.97 C609.54,184.04 603.99,185.07 597.87,185.07 C589.08,185.07 582.35,182.41 577.68,177.09 C573.02,171.77 570.7,164.1 570.7,154.09 C570.7,147.8 571.84,142.3 574.11,137.57 C576.37,132.87 579.67,129.24 584,126.69 C588.29,124.16 593.32,122.9 599.07,122.9 C604.99,122.9 610.89,124.32 616.77,127.16 L612.64,137.58 C610.36,136.5 608.09,135.56 605.81,134.77 C603.5,133.97 601.25,133.57 599.07,133.57 L599.07,133.57 zM881.35,169.85 L859.3,169.85 L854.92,184.24 L826.54,184.24 L804.62,153.59 L804.62,184.24 L791.79,184.24 L791.79,123.77 L804.62,123.77 L804.62,153.05 L826.29,123.77 L839.94,123.77 L817.89,152.8 L841.1,184.24 L862.45,123.52 L878.12,123.52 L899.55,184.24 L885.73,184.24 L881.35,169.85 L881.35,169.85 zM734.87,123.77 L753.7,123.77 C762.25,123.77 768.48,125 772.38,127.46 C776.25,129.9 778.18,133.77 778.18,139.07 C778.18,142.7 777.34,145.67 775.66,147.97 C773.95,150.29 771.69,151.69 768.88,152.14 L768.88,152.56 C772.75,153.43 775.52,155.03 777.19,157.36 C778.87,159.69 779.71,162.81 779.71,166.7 C779.71,172.21 777.72,176.5 773.74,179.59 C769.75,182.69 764.35,184.24 757.55,184.24 L734.87,184.24 L734.87,123.77 L734.87,123.77 zM510.72,177 C505.75,171.62 503.27,163.9 503.27,153.84 C503.27,143.76 505.75,136.07 510.72,130.77 C515.7,125.47 522.83,122.82 532.14,122.82 C541.45,122.82 548.56,125.5 553.49,130.84 C558.39,136.17 560.85,143.85 560.85,153.88 L560.85,153.92 C560.85,163.93 558.37,171.63 553.4,177 C548.44,182.38 541.32,185.07 532.06,185.07 C522.79,185.07 515.68,182.38 510.72,177 L510.72,177 zM475.8,173.57 L475.8,134.44 L463.52,134.44 C461.66,147.92 457.89,160.96 452.18,173.57 L475.8,173.57 L475.8,173.57 zM870.35,132.91 C869.44,136.42 866.83,145.15 862.53,159.09 L878.29,159.09 L871.45,136.97 C870.92,135.26 870.55,133.91 870.35,132.91 L870.35,132.91 zM516.71,153.92 C516.71,167.52 521.83,174.31 532.06,174.31 C542.29,174.31 547.4,167.52 547.4,153.92 C547.4,140.31 542.32,133.5 532.14,133.5 C521.85,133.51 516.71,140.29 516.71,153.87 L516.71,153.92 L516.71,153.92 zM438.7,173.57 C442.7,165.59 445.86,157.6 448.17,149.62 C450.5,141.57 452.23,132.96 453.34,123.77 L488.58,123.77 L488.58,173.57 L496.65,173.57 L496.65,201.86 L484.28,201.86 L484.28,184.24 L446.39,184.24 L446.39,201.86 L434.02,201.86 L434.02,173.57 L438.7,173.57 L438.7,173.57 zM747.7,134.27 L747.7,147.72 L755.14,147.72 C758.62,147.72 761.14,147.18 762.7,146.09 C764.25,145.02 765.03,143.24 765.03,140.74 C765.03,138.44 764.19,136.79 762.52,135.79 C760.82,134.78 758.16,134.27 754.51,134.27 L747.7,134.27 L747.7,134.27 zM747.7,157.89 L747.7,173.65 L756.11,173.65 C762.96,173.65 766.39,170.92 766.39,165.46 C766.39,160.41 762.81,157.89 755.64,157.89 L747.7,157.89 L747.7,157.89 zM637.87,184.24 L637.87,134.44 L621.45,134.44 L621.45,123.77 L667.12,123.77 L667.12,134.44 L650.69,134.44 L650.69,184.24 L637.87,184.24 L637.87,184.24 zM706,159.09 L699.16,136.97 C698.63,135.26 698.27,133.91 698.06,132.91 C697.15,136.42 694.54,145.15 690.24,159.09 L706,159.09 L706,159.09 z"/>
  <path fill="#000000" d="M326.19,90.99 C323.89,88.97 321.45,87.11 318.87,85.43 C313.78,82.1 306.35,79.45 296.57,77.5 C286.8,75.55 280.37,75.42 277.29,77.12 C274.48,78.67 273.22,83.72 273.51,92.26 L274.3,115.72 C274.4,117.18 274.53,118.19 274.71,118.73 C274.97,119.49 275.88,120.35 277.45,121.3 L346.17,122.1 C344.18,117.55 342.01,113.11 339.65,108.77 L326.19,90.99 L326.19,90.99 zM357.71,226.81 L348.89,199.82 C343.49,190.21 335.79,182.88 325.79,177.86 C315.79,172.83 305.69,171.2 295.49,172.97 C274.09,177.13 259.96,188.36 253.1,206.68 C250.77,212.91 249.08,219.33 248.02,225.96 L140.28,226 L130.33,198.72 C116.98,177.52 98.08,169.23 73.61,173.87 C54.6,177.87 41.79,188.94 35.2,207.11 C33.07,212.97 31.46,219.06 30.36,225.37 L11.51,224.85 C3.66,221.89 -0.08,213.69 0.3,200.23 L0,36.28 C-0.02,25.91 1.51,18.11 4.59,12.88 C7.45,8.03 12.07,4.61 18.44,2.62 C25.31,0.48 35.41,-0.35 48.76,0.13 L226.54,0.55 C245.72,0.6 257.02,7.56 260.43,21.45 C262.58,30.16 262.73,39.36 260.88,49.04 L300.98,49.3 C303.63,49.39 305.71,49.58 307.21,49.87 C309.34,50.28 313.99,51.84 321.16,54.57 C343.14,62.91 360.47,82.28 373.14,112.69 L373.24,112.96 C377.91,124.31 381.09,133.27 382.79,139.85 C384.22,145.37 385.29,151.66 386,158.7 C386.86,167.15 387.61,181.39 388.27,201.43 C389.09,215.06 383.32,223.2 370.97,225.85 C366.64,226.78 362.22,227.1 357.71,226.81 L357.71,226.81 zM126.1,235.72 C123.14,247.41 116.64,256.14 106.61,261.92 C96.58,267.7 85.41,269.15 73.1,266.27 C62.64,263.42 54.35,257.08 48.23,247.27 C42.12,237.46 40.22,227.43 42.52,217.19 C45.66,205.17 52.08,195.88 61.79,189.31 C71.44,182.77 81.65,180.76 92.41,183.27 L92.59,183.3 C105.18,186.47 114.58,192.9 120.82,202.6 C127.08,212.35 128.84,223.39 126.1,235.72 L126.1,235.72 zM241.22,16.48 L240.33,16.21 L17.24,16.27 L16.49,153.37 L245.4,153.37 L245.51,16.48 L241.22,16.48 L241.22,16.48 zM320.25,230.61 C321.64,226.25 321.16,221.87 318.82,217.48 C316.47,213.1 313.01,210.11 308.43,208.51 C303.27,207.01 298.56,207.25 294.3,209.24 C290.04,211.24 287.1,214.57 285.49,219.25 C284.03,224.23 284.34,229.04 286.4,233.67 C288.47,238.3 291.64,241.27 295.9,242.57 C307.54,246.11 315.65,242.13 320.25,230.61 L320.25,230.61 zM72.09,238.24 C75.6,241.77 79.62,243.57 84.16,243.64 C89.76,243.37 94.32,241.48 97.86,237.96 C101.4,234.45 103.19,230.02 103.25,224.68 C103,220.26 101.12,216.3 97.62,212.81 C94.12,209.32 90.2,207.49 85.86,207.33 L85.76,207.33 C80.19,207.34 75.48,209.17 71.65,212.81 C67.82,216.45 66.06,220.76 66.37,225.74 C66.67,230.54 68.58,234.71 72.09,238.24 L72.09,238.24 zM323.5,262.37 C313.3,267.89 302.14,269.06 290.02,265.9 C279.35,262.81 271.21,256.31 265.6,246.4 C259.99,236.49 258.54,226.05 261.26,215.08 C264.34,203.85 270.82,195.05 280.69,188.68 C290.53,182.34 300.56,180.47 310.76,183.08 L310.84,183.11 C339.69,191.56 350.63,209.49 343.68,236.9 C340.43,248.37 333.71,256.86 323.5,262.37 L323.5,262.37 z"/>
 </g>
</svg>

