<?xml version="1.0" encoding="UTF-8"?>
<!DOCTYPE svg PUBLIC "-//W3C//DTD SVG 1.1//EN" "http://www.w3.org/Graphics/SVG/1.1/DTD/svg11.dtd">
<!-- Creator: FutureCorp VMX -->
<svg xmlns="http://www.w3.org/2000/svg" xml:space="preserve" shape-rendering="geometricPrecision" text-rendering="geometricPrecision" image-rendering="optimizeQuality" fill-rule="evenodd" clip-rule="evenodd" viewBox="0 0 806 242" enable-background="new 0 0 806 242" 
 xmlns:xlink="http://www.w3.org/1999/xlink">
 <g id="Layer_1">
  <metadata id="FutureCorpID_Layer"/>

  <path fill="#000000" d="M173.54,2.83 L173.52,2.83 C201.75,14.13 204.92,15.92 229.19,34.13 C245.91,46.68 246.36,47.11 247.53,51.75 C248.58,55.87 248.25,57.09 243.19,67.68 C225.78,104.19 228.29,99.31 225.62,101.81 C221.49,105.69 217.84,105.79 209,102.25 C198.49,98.05 198.44,98.04 197.05,99.39 C195.56,101.09 195.54,101.25 195.44,116.64 L195.36,129.56 C194.99,186.25 195.08,172.08 194.72,228.77 C194.22,236.93 189.71,241.08 181.06,241.3 C120.86,241.27 135.91,241.27 75.7,241.35 C61.99,241.36 61.03,241.22 57.84,238.69 C54.17,235.76 53.11,232.67 53.06,224.64 L52.32,113.36 C52.36,110.36 52.35,111.11 52.37,108.11 C52.4,100.69 51.24,98.1 48.17,98.71 C41.65,101.21 43.28,100.59 36.75,103.05 C29.93,105.61 26.15,105.37 22.59,102.12 C19.96,99.73 19.97,99.74 13.34,85.86 C-1.68,54.42 0.22,58.81 0.02,55.09 C-0.25,50.03 1.58,47.16 8.45,41.9 C42.16,16.08 47.24,13.13 78.74,1.11 C83.45,-0.69 85.4,-0.47 95.18,2.94 C115.11,9.88 133.11,9.74 153.95,2.47 C163.57,-0.88 164.41,-0.87 173.54,2.83 L173.54,2.83 z"/>
  <path fill="#FFFFFF" d="M33.29,32.28 L33.72,32.71 L8.79,51.01 C6.79,52.47 6.43,53.99 7.38,56.9 C16.58,76.32 14.28,71.46 23.47,90.89 C26.49,97.25 27.47,98.06 31.2,97.3 L44.82,92.12 C50.26,90.05 51.93,87.23 51.59,80.7 C50.7,63.4 45.84,36.2 42.56,30.12 C41.05,27.53 39.14,27.97 33.29,32.28 L33.29,32.28 z"/>
  <path fill="#FFFFFF" d="M160.45,8.92 L160.44,8.92 C160.17,9.31 160,9.58 159.7,10.11 C151.17,25.37 142.24,31.75 127.65,32.97 C111.19,34.35 98.32,27.62 89.95,13.26 C86.52,7.37 87.06,8.17 86.14,7.66 C83.94,6.67 84.16,6.59 66.1,14.05 C48.25,21.42 47.85,21.85 50.22,30.74 C55.46,50.4 57.77,65.98 58.91,89.33 C59.52,145.03 59.39,131.11 59.8,186.81 C59.96,208.67 59.93,203.21 59.98,225.07 C60,231.45 61.03,233.35 64.67,233.7 L180.23,233.8 C185.49,233.8 187.03,232.94 187.65,229.62 L188.46,121.64 C188.66,95.18 188.58,99.97 189.07,88.15 C189.89,68.5 192.8,48.26 196.93,33.47 C200.29,21.42 200.61,21.81 180.27,13.42 C162.75,6.19 162.39,6.11 160.45,8.92 L160.45,8.92 z"/>
  <path fill="#FFFFFF" d="M125.98,15.21 L126.08,15.19 C118.45,15.42 112.47,14.85 104.2,13.09 C99.03,11.99 99.72,12.05 99.39,12.69 C98.8,13.85 102.26,18.29 105.58,20.62 C117,28.63 136.17,27.45 145.17,18.16 C146.77,16.52 148.64,13.7 148.6,13.01 C148.55,12.37 147.75,12.15 146.38,12.41 C136.82,14.66 134.51,14.97 125.98,15.21 L125.98,15.21 z"/>
  <path fill="#FFFFFF" d="M215.27,33.25 L215.31,33.24 C207.63,27.59 208.92,28.18 206.23,29.07 C203.94,31.01 201.03,42.72 198.55,59.91 C195.65,80.05 195.65,86.38 198.55,89.45 C200.26,91.17 198.28,90.26 212.44,95.81 C218.84,98.32 220.28,98.18 222.38,94.86 C231.43,76.07 229.17,80.77 238.22,61.97 C241.31,55.57 241.47,54.92 240.59,52.5 C240.17,51.44 243.78,54.19 215.27,33.25 L215.27,33.25 z"/>
  <path fill="#000000" d="M523.21,171.83 L509.23,171.83 L509.23,117.35 L484.89,117.35 L484.89,171.83 L470.86,171.83 L470.86,105.68 L523.21,105.68 L523.21,171.83 L523.21,171.83 z"/>
  <path fill="#000000" d="M580.4,171.83 L575.6,156.08 L551.49,156.08 L546.69,171.83 L531.58,171.83 L554.92,105.41 L572.07,105.41 L595.51,171.83 L580.4,171.83 L580.4,171.83 zM572.25,144.32 C569.76,136.25 567.27,128.18 564.77,120.12 C564.19,118.25 563.79,116.77 563.57,115.68 C562.57,119.52 559.72,129.07 555.01,144.32 L572.25,144.32 L572.25,144.32 z"/>
  <path fill="#000000" d="M631.84,171.83 L615.91,119.93 L615.51,119.93 C616.07,129.96 616.37,137.34 616.37,141.06 L616.37,171.83 L603.83,171.83 L603.83,105.68 L622.93,105.68 L638.58,156.26 L638.85,156.26 L655.46,105.68 L674.55,105.68 L674.55,171.83 L661.47,171.83 L661.47,140.52 L661.56,135.4 C661.76,130.28 661.96,125.15 662.15,120.02 L661.75,120.02 L644.69,171.83 L631.84,171.83 L631.84,171.83 z"/>
  <path fill="#000000" d="M743.37,105.68 L722.9,152.46 C720.33,158.33 717.93,162.55 715.7,165.11 C713.45,167.7 710.79,169.61 707.7,170.85 C704.61,172.1 700.84,172.73 696.49,172.73 C692.73,172.73 689.22,172.28 685.95,171.37 L685.95,159.34 C688.62,160.42 691.92,160.97 695.86,160.97 C698.33,160.97 700.37,160.39 701.92,159.25 C703.44,158.09 704.71,156.08 705.77,153.19 L682.87,105.68 L697.71,105.68 L714,142.55 L714.46,142.55 L715.27,140.29 L728.93,105.68 L743.37,105.68 L743.37,105.68 z"/>
  <path fill="#000000" d="M805.62,171.83 L789.7,171.83 L765.72,138.3 L765.72,171.83 L751.69,171.83 L751.69,105.68 L765.72,105.68 L765.72,137.71 L789.42,105.68 L804.35,105.68 L780.24,137.44 L805.62,171.83 L805.62,171.83 z"/>
  <path fill="#000000" d="M243.3,171.37 L229.67,171.37 L229.67,134.06 L230.02,121.23 C227.77,123.49 226.18,124.98 225.31,125.69 L217.9,131.64 L211.32,123.44 L232.1,106.9 L243.3,106.9 L243.3,171.37 L243.3,171.37 z"/>
  <path fill="#000000" d="M305.87,139.14 C305.87,150.38 304.02,158.71 300.34,164.13 C296.66,169.54 290.98,172.25 283.33,172.25 C283.32,172.25 283.31,172.25 283.3,172.25 C283.29,172.25 283.28,172.25 283.27,172.25 C275.83,172.25 270.23,169.47 266.47,163.89 C262.69,158.28 260.81,150.03 260.81,139.14 C260.82,116.49 267.99,105.88 283.3,105.88 C298.15,105.88 305.87,117.26 305.87,139.14 L305.87,139.14 zM274.34,139.14 C274.34,146.98 275.04,152.69 276.43,156.15 C277.79,159.57 280.09,161.27 283.32,161.27 C286.48,161.27 288.77,159.54 290.17,156.07 C291.59,152.59 292.29,146.94 292.29,139.14 C292.29,131.23 291.58,125.56 290.16,122.12 C288.72,118.65 286.44,116.91 283.32,116.91 C283.31,116.91 283.3,116.91 283.3,116.91 C283.29,116.91 283.28,116.91 283.28,116.91 C280.07,116.91 277.78,118.64 276.41,122.11 C275.04,125.57 274.34,131.29 274.34,139.14 L274.34,139.14 z"/>
  <path fill="#000000" d="M357.42,139.14 C357.42,150.38 355.58,158.71 351.89,164.13 C348.21,169.54 342.54,172.25 334.88,172.25 C334.87,172.25 334.86,172.25 334.85,172.25 C334.84,172.25 334.83,172.25 334.82,172.25 C327.38,172.25 321.78,169.47 318.03,163.89 C314.25,158.28 312.36,150.03 312.36,139.14 C312.37,116.49 319.54,105.88 334.85,105.88 C349.71,105.88 357.43,117.26 357.42,139.14 L357.42,139.14 zM325.9,139.14 C325.9,146.98 326.6,152.69 327.98,156.15 C329.34,159.57 331.64,161.27 334.87,161.27 C338.03,161.27 340.32,159.54 341.73,156.07 C343.14,152.59 343.85,146.94 343.85,139.14 C343.85,131.23 343.13,125.56 341.71,122.12 C340.27,118.65 337.99,116.91 334.87,116.91 C334.86,116.91 334.86,116.91 334.85,116.91 C334.84,116.91 334.84,116.91 334.83,116.91 C331.62,116.91 329.33,118.64 327.96,122.11 C326.59,125.57 325.9,131.29 325.9,139.14 L325.9,139.14 z"/>
  <path fill="#000000" d="M374.54,126.21 C374.54,129.89 374.88,132.71 375.56,134.59 C376.22,136.41 377.27,137.32 378.73,137.32 C381.55,137.32 382.96,133.62 382.96,126.21 C382.96,118.86 381.55,115.18 378.73,115.19 C377.27,115.2 376.21,116.11 375.55,117.92 C374.88,119.77 374.54,122.54 374.54,126.21 L374.54,126.21 zM394.08,126.13 C394.08,139.56 388.85,146.46 378.67,146.46 C378.66,146.46 378.65,146.46 378.64,146.46 C378.63,146.46 378.62,146.46 378.61,146.46 C373.77,146.46 370.04,144.72 367.4,141.25 C364.76,137.78 363.43,132.71 363.43,126.13 C363.43,112.68 368.5,105.96 378.64,105.97 C383.59,105.97 387.39,107.72 390.09,111.24 C392.75,114.72 394.08,119.66 394.08,126.13 L394.08,126.13 zM424.42,106.9 L388.65,171.37 L378.07,171.37 L413.83,106.9 L424.42,106.9 L424.42,106.9 zM419.7,151.97 C419.7,155.65 420.04,158.46 420.72,160.34 C421.38,162.16 422.43,163.07 423.89,163.07 C426.71,163.08 428.12,159.38 428.12,151.97 C428.12,144.61 426.71,140.94 423.89,140.95 C422.43,140.95 421.37,141.86 420.71,143.68 C420.04,145.52 419.7,148.29 419.7,151.97 L419.7,151.97 zM439.23,151.88 C439.22,165.3 434.01,172.17 423.83,172.17 C423.82,172.17 423.81,172.17 423.8,172.17 C423.79,172.17 423.78,172.17 423.77,172.17 C418.93,172.17 415.19,170.43 412.56,166.96 C409.91,163.48 408.58,158.45 408.58,151.88 C408.58,138.44 413.66,131.72 423.8,131.72 C428.75,131.73 432.55,133.47 435.24,136.99 C437.91,140.47 439.23,145.41 439.23,151.88 L439.23,151.88 z"/>
 </g>
</svg>

